<?xml version="1.0" standalone="no"?>
<!DOCTYPE svg PUBLIC "-//W3C//DTD SVG 20010904//EN"
 "http://www.w3.org/TR/2001/REC-SVG-20010904/DTD/svg10.dtd">
<svg version="1.0" xmlns="http://www.w3.org/2000/svg"
 width="300.000000pt" height="300.000000pt" viewBox="0 0 300.000000 300.000000"
 preserveAspectRatio="xMidYMid meet">
<metadata>
Created by potrace 1.14, written by Peter Selinger 2001-2017
</metadata>
<g transform="translate(0.000000,300.000000) scale(0.100000,-0.100000)"
fill="#000000" stroke="none">
<path d="M1285 2985 c-644 -105 -1117 -554 -1257 -1192 -29 -135 -32 -412 -4
-558 114 -611 565 -1072 1183 -1207 135 -29 412 -32 558 -4 611 114 1072 565
1207 1183 29 135 32 412 4 558 -114 609 -567 1073 -1178 1206 -126 27 -388 34
-513 14z m496 -34 c603 -120 1066 -592 1175 -1196 24 -137 24 -386 0 -515
-118 -617 -590 -1086 -1201 -1196 -137 -24 -386 -24 -515 0 -617 118 -1086
590 -1196 1201 -24 137 -24 386 0 515 77 402 304 746 639 971 201 134 416 209
697 243 73 9 309 -5 401 -23z"/>
<path d="M1352 2590 c-215 -27 -384 -109 -514 -249 -69 -74 -111 -148 -133
-232 -20 -73 -20 -277 0 -352 73 -281 315 -425 795 -472 262 -27 390 -101 390
-227 0 -41 -5 -54 -37 -90 -50 -54 -105 -77 -212 -88 -107 -12 -225 0 -306 31
-97 36 -193 142 -231 253 -9 25 -19 46 -22 46 -4 0 -116 -36 -249 -81 l-243
-81 6 -26 c15 -59 58 -170 87 -221 39 -70 146 -183 221 -234 85 -57 213 -115
324 -145 91 -24 110 -26 327 -26 218 0 235 2 330 27 161 43 255 95 355 196
137 137 180 249 180 466 0 130 -13 195 -55 280 -63 130 -224 251 -415 313 -90
29 -135 38 -285 57 -173 21 -306 49 -360 75 -56 27 -87 75 -87 135 0 60 28 97
100 132 52 26 66 28 162 27 83 0 117 -5 161 -23 74 -28 139 -86 175 -156 16
-30 34 -55 39 -55 6 0 114 42 240 94 265 108 252 93 183 213 -123 215 -304
342 -568 398 -87 18 -268 26 -358 15z"/>
</g>
</svg>
